# xmcd
#
# Track frame offsets:
#	150
#	21440
#	44901
#	58673
#	65269
#	78101
#	97780
#	112232
#	124010
#	137767
#	162342
#
# Disc length: 2299 seconds
#
# Revision: 1
# Processed by: cddbd v1.5.2PL0 Copyright (c) Steve Scherf et al.
# Submitted via: audiograbber 1.83.01
#
DISCID=9608f90b
DTITLE=Remate - No Land Recordings [CD2)
DYEAR=2007
DGENRE=Country
TTITLE0=Out of Your Skin I
TTITLE1=A Singer on the Loose
TTITLE2=Pain in Vain
TTITLE3=Out of Your Skin II
TTITLE4=Toxic Love I
TTITLE5=Unknown Howl
TTITLE6=Propeller Beanie
TTITLE7=Toxic Love II
TTITLE8=Glowing Colours
TTITLE9=Purple Stain
TTITLE10=Swinging (Rewinding)
EXTD=
EXTT0=
EXTT1=
EXTT2=
EXTT3=
EXTT4=
EXTT5=
EXTT6=
EXTT7=
EXTT8=
EXTT9=
EXTT10=
PLAYORDER=
